<svg width="1440" height="868" viewBox="0 0 1440 868" xmlns="http://www.w3.org/2000/svg"><title>top-grid copy</title><defs><linearGradient x1="105.694%" y1="125.794%" x2="0%" y2="0%" id="a"><stop stop-color="#4264FB" offset="0%"/><stop stop-color="#EE4E8B" offset="100%"/></linearGradient><linearGradient x1="50%" y1="8.129%" x2="50%" y2="100%" id="b"><stop stop-color="#FFF" offset="0%"/><stop stop-color="#FFF" stop-opacity="0" offset="100%"/></linearGradient><linearGradient x1="91.451%" y1="52.158%" x2="15.69%" y2="52.158%" id="c"><stop stop-color="#FFF" offset="0%"/><stop stop-color="#FFF" stop-opacity="0" offset="100%"/></linearGradient></defs><g opacity=".5" fill="none" fill-rule="evenodd"><g opacity=".703" transform="rotate(18 1101.372 -5051.473)" stroke="url(#a)" stroke-width=".5"><g opacity=".706"><path d="M554 349.987c241.523 80.868 515.524 87.708 765.46 50.007 213.696-32.237 435.119-138.404 654.351-102.484 120.294 19.71 215.574 93.204 303.499 172.972 85.546 77.61 173.589 167.564 293.623 183.93 248.327 33.858 351.537-265.579 557.503-340.377 140.684-51.093 287.48 8.858 411.659 73.185 54.938 28.46 110.624 45.642 173.073 43.606 87.832-2.86 150.74-48.386 219.233-97.973-83.155 52.677-155.33 26.873-235.06-19.385-66.767-38.735-129.986-61.017-207.89-56.707-100.777-2.95-201.367-4.666-301.966 3.44-85.586 6.894-170.345 20.364-255.308 32.357-150.275 21.213-297.71 26.943-448.684 9.175-150.37-17.694-299.09-38.83-450.74-42.584-155.764-3.856-311.873-.863-467.68-.577-149.608.277-298.47 4.41-446.521 27.671C940.597 332.275 738.472 394.48 554 349.987z"/><path d="M1106.39 288.325c150.054-23.614 300.663-29.472 452.352-30.435 157.6-1.003 315.665-4.391 473.204.809 153.321 5.061 303.233 29.613 455.151 48.244 150.535 18.46 297.316 10.82 446.829-12.349 86.707-13.437 173.202-28.245 260.698-35.699 100.561-8.567 201.162-6.551 301.917-3.527"/><path d="M1095.116 292.103c150.802-23.622 301.862-31.398 454.34-33.114 158.014-1.777 316.664-5.55 474.604.639 153.764 6.023 303.703 32.583 455.874 52.75 153.23 20.305 301.943 11.836 453.946-13.704 88.893-14.936 177.51-31.329 267.378-39.399 101.086-9.078 202.257-6.638 303.553-3.457"/><path d="M1083.843 295.672c153.01-23.71 305.975-33.295 460.691-35.764 159.777-2.55 320.386-6.859 480.067.717 155.45 7.378 306.532 37.448 460.275 58.547 155.101 21.285 305.042 9.696 458.398-18.376 88.462-16.194 176.728-33.38 266.389-41.607 101.13-9.282 202.358-6.349 303.693-2.967"/><path d="M1072.57 297.694c155.314-23.62 310.291-35.099 467.311-38.357 161.528-3.35 324.098-8.232 485.5.77 154.936 8.642 305.086 41.334 458.19 63.486 156.968 22.711 308.07 9.286 462.873-21.261 87.875-17.341 175.576-35.45 264.834-44.188 103.52-10.131 207.145-6.595 310.896-2.878"/><path d="M1059.686 301.132c157.708-23.448 314.84-36.79 474.232-40.868 161.043-4.12 323.317-9.533 484.22.372 158.956 9.786 312.258 46.603 469.244 69.808 156.621 23.153 306.913 7.275 460.84-25.264 87.292-18.455 174.444-37.532 263.322-46.718 105.893-10.945 211.96-6.637 318.096-2.522"/><path d="M1048.413 304.677c160.218-23.128 319.61-38.359 481.466-43.301 162.757-4.968 327.014-11.083 489.597.3 158.47 11.092 310.773 50.571 467.159 74.828 158.525 24.589 309.924 6.58 465.23-28.484 89.002-20.094 177.916-40.523 268.84-49.871 105.947-10.89 212.13-5.67 318.277-1.203"/><path d="M1035.529 306.592c160.649-22.36 320.312-39.495 482.498-45.395 164.398-5.98 330.627-12.897 494.853-.57 160.34 12.036 313.665 54.783 471.715 80.357 160.56 25.983 312.797 5.788 469.564-31.837 90.716-21.774 181.384-43.565 274.4-52.95 106.002-10.698 212.276-4.48 318.417.373"/><path d="M1022.645 310.074c163.401-21.764 325.64-40.758 490.47-47.583 166.059-6.875 334.286-14.636 500.14-.81 159.889 13.328 312.164 58.756 469.64 85.411 164.838 27.903 319.82 3.878 480.046-36.918 88.083-22.427 176.248-44.204 266.854-53.619 108.336-11.259 216.993-3.91 325.441 1.469"/><path d="M1009.761 313.189c166.24-21.122 331.225-41.852 498.774-49.648 167.706-7.806 337.927-16.45 505.398-1.087 161.586 14.826 314.814 64.32 473.994 91.555 162.177 27.747 314.672 2.094 471.676-40.084 89.577-24.066 179.259-47.556 271.734-57.378 110.642-11.752 221.674-3.095 332.383 2.846"/><path d="M998.488 316.313c168.493-22.514 336.636-42.8 506.485-51.578 167.139-8.637 337.104-18.05 504.022-2.039 165.704 15.896 321.733 70.42 484.926 98.401 164.357 28.183 317.493-2.032 475.594-46.792 89.234-25.263 178.778-49.075 271.32-58.407 110.628-11.152 221.666-1.232 332.257 5.162"/><path d="M985.604 319.633c169.954-21.365 339.285-43.315 510.4-53.149 169.53-9.743 342.41-20.308 511.71-2.838 163.998 16.925 317.697 73.182 478.945 102.755 167.305 30.684 322.014-1.38 482.371-49.118 91.314-27.185 183.086-52.488 278.255-61.584 111.104-10.62 222.589.64 333.548 7.52"/><path d="M974.331 322.53c172.697-20.66 344.669-43.892 518.362-54.782 171.117-10.727 346.015-22.355 516.874-3.314 165.746 18.47 320.218 79.127 483.288 109.052 167.074 30.662 320.848-4.831 480.03-54.462 93.03-29.005 186.684-55.471 284.146-63.97 111.04-9.682 222.346 2.88 333.119 10.203"/><path d="M961.448 325.548c173.332-19.694 345.902-43.81 520.028-55.817 172.563-11.9 349.453-24.804 521.813-5.034 167.763 19.239 322.971 83.644 487.79 114.955 171.676 32.612 327.578-7.95 490.133-60.777 90.51-29.412 181.871-55.436 277.08-63.57 113.252-9.678 226.622 4.51 339.512 12.42"/><path d="M950.174 328.193c178.284-19.12 355.683-44.477 534.592-57.569 169.858-12.43 344.252-25.96 513.956-6.023 171.982 20.205 329.709 90.407 498.67 122.205 169.196 31.842 322.464-10.444 481.699-64.549 91.951-31.24 184.902-58.954 282.145-67.02 115.427-9.572 230.819 6.412 345.77 14.89"/><path d="M937.29 331.024c179.026-17.993 357.08-43.95 536.496-58.213 173.447-13.79 352.095-28.863 525.405-7.24 171.645 21.415 327.998 94.843 496.554 127.468 173.923 33.662 329.052-14.037 491.651-71.321 91.761-32.33 184.769-59.771 282.302-66.735 115.258-8.228 230.174 9.204 344.828 18.042"/><path d="M924.407 333.536c181.93-16.997 362.752-43.744 544.852-59.151 174.863-14.797 355.74-31.403 530.449-8.035 171.239 22.908 326.357 98.878 494.453 132.717 173.63 34.955 328.208-14.716 489.604-74.006 95.394-35.042 192.407-64.723 294.523-70.39 115.127-6.387 229.269 12.093 343.676 21.242"/><path d="M913.134 335.894c185.7-15.97 370.128-43.538 555.768-60.138 172.967-15.466 352.04-32.85 524.976-9.742 176.49 23.587 334.58 106.688 507.874 140.57 174.652 34.143 328.24-20.507 489.265-81.716 95.566-36.324 193.184-65.99 296.038-70.295 115.405-4.828 229.276 14.952 343.872 24.38"/><path d="M900.25 338.343c186.563-14.595 371.705-42.32 557.942-60.123 176.435-16.867 359.873-36.19 536.314-11.267 176.172 24.886 332.774 111.246 505.734 145.889 179.627 35.976 334.58-24.995 499.016-89.18 95.59-37.311 193.39-66.095 296.673-68.847 115.05-3.068 228.07 17.992 342.26 27.568"/><path d="M888.977 340.524c189.561-13.301 377.52-41.475 566.508-60.485 177.83-17.887 363.434-38.875 541.288-12.271 175.836 26.302 331.009 115.505 503.603 151.193 179.48 37.11 333.654-25.922 496.894-92.133 94.756-38.435 191.92-68.417 294.907-71.419 119.445-3.48 236.332 20.397 354.795 30.428"/><path d="M876.093 342.584c192.582-11.901 383.371-40.408 575.123-60.655 179.312-18.936 366.876-41.408 546.237-13.317 175.562 27.497 329.239 119.703 501.48 156.486 184.308 39.361 340.123-31.008 506.496-99.984 94.962-39.37 192.278-68.031 295.813-69.349 118.944-1.513 234.844 23.711 352.814 33.69"/><path d="M864.82 344.616c193.513-10.283 385.086-38.513 577.51-59.929 178.445-19.86 365.509-43.932 544.312-17.164 180.556 27.03 336.038 125.359 512.479 163.823 186.867 40.738 342.705-34.077 510.178-105.566 98.198-41.92 198.29-69.978 305.801-69.27 117.26.772 231.185 27.094 347.566 36.806"/><path d="M851.936 346.215c197.367-8.719 392.626-37.232 588.65-59.946 180.692-20.936 370.937-46.932 551.923-17.322 180.636 29.555 335.336 132.723 512.717 169.995 185.489 38.978 338.908-39.247 503.72-111.796 101.757-44.792 204.82-72.52 316.714-69.954 116.066 2.66 228.617 30.45 343.923 39.809"/><path d="M840.663 349.437c200.403-7.002 398.557-35.51 597.371-59.484 180.024-21.707 369.722-48.95 550.228-19.648 183.136 29.731 337.806 137.558 517.153 176.408 190.47 41.258 345.169-45.425 513.153-120.259 103.561-46.133 207.195-70.89 321.037-66.509 114.179 4.392 224.827 33.788 338.436 42.615"/><path d="M827.779 351.009c201.31-5.12 400.342-32.944 599.835-58.024 181.308-22.794 372.77-52.248 554.809-22.897 185.669 29.935 340.168 142.903 521.568 182.894 190.718 42.046 343.973-46.61 510.917-123.613 102.826-47.426 205.877-73.109 319.632-68.69 118.334 4.597 232.522 37.431 350.286 46.01"/><path d="M816.506 352.185c205.142-3.211 407.927-31.014 611.023-57.423 183.477-23.86 378.247-55.524 562.4-23.163 90.012 15.816 175.032 48.154 257.932 85.836 85.868 39.028 170.854 83.665 263.878 103.23 191.91 40.369 343.578-54.92 510.107-132.867 104.591-48.957 208.798-72.193 324.586-65.9 117.07 6.364 229.966 40.955 346.742 48.735"/><path d="M802 353.101c208.122-1.169 413.894-28.645 619.763-56.302 182.864-24.566 376.865-57.585 560.648-25.772 92.299 15.98 179.029 50.089 263.446 89.77 85.34 40.119 169.834 85.837 262.793 105.828 91.746 19.731 153.944 15.687 271.74-22.588 25.47-8.275 47.517-18.772 70.758-29.895 59.42-28.439 117.293-61.338 176.894-89.39 106.008-49.889 211.673-69.847 328.714-61.355 115.192 8.357 226.219 44.315 341.5 51.11"/><path d="M792.349 355.95c208.929.98 415.685-25.443 622.204-54.086 184.207-25.55 379.753-60.876 565.19-29.385 94.58 16.063 183.07 52.08 268.938 93.786 84.857 41.216 168.794 87.855 261.707 108.413 197.048 43.595 348.688-63.512 517.073-145.488 110.78-53.931 221.35-73.122 344.133-61.892 113.418 10.375 222.622 47.51 336.583 53.181"/><path d="M781.075 356.804c213.965 3.264 425.817-23.249 637.174-53.39 183.515-26.173 378.978-62.93 563.782-30.158 94.485 16.756 182.48 53.853 267.819 96.652 86.276 43.27 171.734 92.307 267.158 112.362 199.994 42.032 349.901-73.598 519.717-156.157 111.962-54.43 224.114-70.161 347.722-56.432 111.784 12.417 219.187 50.51 332.032 54.914"/><path d="M769.802 357.48c215.508 5.618 429.234-19.88 642.027-51.043 185.7-27.196 383.831-66.66 570.987-32.637 97.1 17.653 186.688 57.386 273.732 102.639 84.084 43.716 167.875 92.513 261.588 112.34 203.709 43.105 353.355-80.777 525.25-164.663 110.674-54.008 221.97-67.64 343.97-52.921 113.638 13.71 222.345 54.37 337.45 57.451"/><path d="M756.918 359.636c216.136 8.025 430.964-16.1 644.333-48.07 187.112-28.033 386.615-70.037 575.529-36.583 99.462 17.612 190.79 59.431 279.204 106.82 83.53 44.772 166.833 94.635 260.522 114.854 203.97 44.02 352.262-82.724 522.844-168.532 112.618-56.65 226.355-69.958 351.081-53.535 114.966 15.14 224.203 58.148 341.14 59.673"/><path d="M745.645 359.69c221.027 10.707 441.07-13.263 659.207-46.762 186.42-28.63 385.776-72.2 574.087-37.479 99.392 18.329 190.193 61.28 278.036 109.79 82.984 45.828 165.762 96.744 259.455 117.357 96.056 21.134 178.909 9.863 278.98-36.484 41.002-18.99 76.354-40.277 111.317-60.945 48.59-28.724 90.472-55.346 141.622-80.813 113.304-56.413 229.77-66.224 354.22-47.027 113.683 17.535 221.064 60.755 337.452 60.505"/><path d="M734.372 361.659c221.502 13.296 442.733-9.119 661.382-43.291 189.855-29.671 393.348-76.951 585.279-40.35 99.341 18.945 189.622 63.141 276.868 112.75 86.26 49.05 172.613 103.691 271.57 122.597 204.143 39.002 347.927-98.327 516.293-184.988 117.094-60.27 239.72-68.64 368.504-45.91 112.668 19.886 218.161 63.047 334.306 60.873"/><path d="M724.71 361.715c224.068 16.098 448.554-5.331 669.787-40.565 191.112-30.44 396.849-80.599 590.166-42.295 99.359 19.686 188.98 64.96 275.7 115.705 85.667 50.127 171.507 105.879 270.494 125.127 209.584 40.756 352.975-107.724 525.301-194.96 117.685-59.573 242.77-64.212 370.966-38.546 111.924 22.406 215.553 64.99 331.75 60.74"/><path d="M713.436 361.57c227.43 19.087 456.011-1.574 680.632-38.02 189.415-30.734 392.443-81.796 584.436-45.469 100.084 18.94 190.296 64.884 276.934 116.812 85.47 51.23 170.656 108.752 269.62 129.95 216.07 46.282 360.393-114.006 537.275-202.591 118.604-59.4 246.008-60.647 374.058-32.417 112.059 24.702 214.216 66.932 331.337 60.42"/><path d="M702.163 362.964c227.626 21.91 457.463 3.04 682.478-33.8 192.962-31.59 400.009-86.791 595.736-48.586 100.031 19.527 189.784 66.73 275.781 119.725 86.727 53.44 173.423 113.66 275.167 133.838 213.746 42.39 354.56-118.617 528.078-208.16 117.967-60.873 245.622-62.276 373.606-33.412 116.884 26.364 221.102 71.755 343.777 62.47"/><path d="M690.89 362.396c229.917 25.03 463.116 7.35 690.584-30.391 194.19-32.223 403.568-90.605 600.681-50.71 100.07 20.254 189.183 68.525 274.626 122.628 87.954 55.692 176.17 118.566 280.704 137.76 216.08 39.68 354.957-131.397 530.375-219.71 117.933-59.371 249.38-56.743 375.435-25.144 117.462 29.444 219.899 72.29 344.046 60.858"/><path d="M681.227 363.478c231.254 28.15 467.007 11.961 696.07-26.336 195.196-32.631 404.475-93.502 602.903-54.358 104.357 20.587 196.202 72.725 284.31 130.238 83.226 54.328 167.049 114.55 266.19 135.157 221.251 45.993 360.052-132.892 538.13-223.885 121.61-62.14 258.076-56.48 387.308-20.687 116.62 32.3 220 74.802 344.198 57.879"/><path d="M669.953 362.58c233.312 31.467 472.524 16.585 703.914-22.479 196.331-33.145 408.143-97.4 607.89-56.598 104.423 21.33 195.598 74.585 283.127 133.235 86.369 57.872 173.651 121.964 278.45 140.206 220.204 38.327 355.796-148.74 533.686-236.735 121.626-60.162 261.213-50.14 388.35-11.726 115.95 35.036 221.706 78.03 345.75 54.268"/><path d="M660.29 363.336c234.475 34.773 476.144 21.484 709.101-17.966 197.356-33.424 409.126-100.253 610.183-60.378 104.355 20.694 195.198 74.244 281.91 133.665 85.247 58.417 171.159 124.291 274.82 144.88 225.42 44.769 360.892-150.729 541.417-241.14 120.896-60.55 260.824-49.782 386.938-10.478 119.925 37.376 229.69 84.425 358.253 53.197"/><path d="M650.628 362.13c236.311 38.288 481.456 26.4 716.63-13.674 198.827-33.88 412.546-104.299 615.232-62.726 104.368 21.406 194.681 76.1 280.762 136.606 88.354 62.103 177.544 131.982 287.087 149.859 224.122 36.572 355.912-166.89 536.901-253.89 121.344-58.328 263.216-42.927 387.562-1.113 119.39 40.147 231.327 85.6 359.3 47.771"/><path d="M640.965 362.552c237.194 41.756 484.9 31.534 721.47-8.724 199.893-34.016 413.539-107.1 617.609-66.622 108.846 21.59 201.666 80.467 290.259 144.523 83.676 60.504 168.664 127.559 272.718 147.142 229.565 43.206 360.882-169.324 544.622-258.512 124.751-60.555 271.54-41.128 398.086 4.629 118.448 42.828 232.54 85.042 358.964 40.9"/><path d="M631.302 361.132c238.119 44.941 488.02 36.81 726.075-3.57 199.073-33.77 409.722-108.052 613.371-71.742 109.238 19.477 202.639 77.283 290.63 142.106 87.912 64.761 176.742 139.036 287.563 158.3 228.275 39.677 356.901-176.317 538.979-265.553 125.969-61.735 275.462-39.844 402.376 8.5 119.313 45.45 237.977 87.309 364.405 35.263"/><path d="M621.64 361.186c237.432 48.283 488.337 42.231 726.458 2.472 202.783-33.857 417.65-113.341 625.13-75.402 109.343 19.995 202.198 79.127 289.517 145.04 87.2 65.824 175.468 141.394 286.437 160.926 231.06 40.667 358.04-184.091 542.063-273.158 126.089-61.027 276.41-36.398 402.138 13.55 121.798 48.384 243.015 88.644 370.757 29.324"/><path d="M611.977 359.442c240.15 52.43 495.81 47.558 737.245 6.93 201.815-33.962 414.33-114.641 621.095-78.264 111.673 19.647 205.634 80.887 293.78 149.022 87.997 68.025 177.116 146.04 290.715 164.37 232.133 37.457 356.127-196.026 542.072-283.001 128.238-59.984 280.55-29.86 406.036 22.841 121.639 51.084 244.466 84.535 370.111 19.796"/><path d="M602.314 359.197c239.155 55.878 495.814 53.087 737.116 13.37 205.668-33.854 422.34-119.985 633.037-82.013 111.745 20.137 205.228 82.757 292.668 151.97 87.248 69.063 175.85 148.424 289.597 166.984 235.028 38.352 356.842-204.171 545.137-290.64 128.578-59.048 281.064-26.077 405.443 28.183 124.872 54.474 249.084 83.845 376.089 12.305"/><path d="M594.262 357.174c241.576 60.242 503.01 58.683 747.492 18.219 204.687-33.881 419.102-121.175 629.056-84.946 114.198 19.706 208.676 84.414 296.929 155.96 87.95 71.303 177.547 153.153 293.911 170.33 236.012 34.84 354.422-216.47 545.122-300.37 128.832-56.68 280.815-20.304 403.49 35.397 127.754 58.006 253.172 80.974 380.626 3.585"/><path d="M584.599 356.647c240.317 63.805 502.54 64.312 746.785 25.028 208.642-33.555 427.284-126.534 641.212-88.767 114.323 20.184 208.295 86.305 295.821 158.92 87.23 72.367 176.164 155.543 292.794 172.932 238.81 35.61 354.867-225.07 548.188-308.006 131.721-56.51 284.414-14.826 407.874 43.375 129.623 61.104 255.104 73.624 381.04-7.703"/><path d="M576.546 354.437c240.243 67.767 504.709 70.018 749.907 31.346 209.982-33.117 428.73-129.072 644.096-92.859 116.803 19.64 211.794 87.96 300.099 162.89 86.167 73.117 174.083 157.235 290.36 175.184 243.476 37.58 356.584-235.876 554.934-316.555 132.41-53.859 283.408-8.614 405.517 50.726 51.787 25.167 103.5 47.003 161.713 50.737 84.544 5.42 154.746-21.692 223.76-68.468"/><path d="M568.494 353.6c240.839 72.038 508.493 75.83 755.353 37.396 210.13-32.717 427.35-130.396 642.973-96.797 119.803 18.67 216.383 89.477 305.723 167.013 87.02 75.523 176.383 162.907 295.855 178.78 242.776 32.257 351.892-246.666 551.398-325.155 135.76-53.41 286.126-2.49 409.402 58.927 52.131 25.969 104.313 46.125 163.263 48.024 86.358 2.78 153.695-29.832 222.722-78.295"/><path d="M560.442 351.023c241.275 76.41 512.123 81.744 760.577 43.63 211.999-32.52 431.065-134.264 648.599-99.637 120.031 19.107 216.013 91.37 304.611 169.994 86.336 76.618 174.947 165.149 294.741 181.361 245.569 33.235 351.798-256.133 554.42-332.84 136.79-51.784 285.647 2.115 408.19 64.831 54.197 27.736 108.67 47.363 170.326 47.324 87.52-.055 152.326-38.725 221.212-88.165M3044.882 358.98c-73.296 18.976-123.42-3.825-175.034-57.678M3016.768 379.463c-73.835 16.306-123.143-21.432-169.466-76.21M2989.58 402.91c-74.585 10.273-122.991-41.239-164.825-96.822M2963.136 427.562c-72.04 9.655-126.68-67.961-160.927-119.042M2937.256 452.54c-72.938-1.884-124.951-88.407-157.594-142.403M2911.764 478.308c-73.988-17.932-121.508-105.624-154.648-166.441M2886.483 504.075c-73.5-33.241-118.232-122.61-151.914-190.696M2859.632 528.232c-71.843-48.123-115.07-138.485-149.22-214.724M2834.26 552.39c-69.343-61.752-112.165-153.673-146.394-238.087M2808.596 574.936c-66.22-73.405-109.636-168.456-143.277-260.356M2782.48 594.262c-62.202-84.932-106.84-181.413-139.707-281.122M2755.757 613.587c-59.409-92.829-104.526-194.288-135.53-299.988M2726.673 628.081c-56.772-99.42-102.032-205.592-130.604-316.572M2698.379 640.965c-54.242-104.922-98.81-215.089-124.856-330.514M2667.35 650.628c-51.522-108.658-96.53-222.699-117.984-341.454M2636.52 655.46c-48.648-111.042-94.05-228.109-109.7-349.038M2604.188 657.07c-45.96-112.939-88.584-230.69-99.915-352.924M2570.268 653.849c-43.705-112.565-81.546-231.439-88.542-352.797M2534.377 647.407c-37.987-111.504-72.648-229.73-75.197-348.416M2500.496 636.134c-33.247-109.116-65.319-224.99-63.812-340.077M2467.328 621.64c-29.562-105.119-59.58-218.008-54.228-328.313M2437.814 603.924c-26.895-100.092-55.21-208.945-46.166-313.643M2408.291 582.988c-24.935-94.218-51.867-198.18-39.348-296.565M2379.993 562.052c-23.561-87.76-49.311-186.118-33.516-277.567M2351.317 537.895c-22.337-79.906-48.217-173.846-28.41-257.114M2324.453 513.738c-21.474-72.198-46.493-160.476-23.79-235.651M2297.957 489.581c-20.87-64.848-44.92-146.397-19.424-213.612M2269.967 465.424c-20.31-57.669-43.236-132.137-15.088-191.4M2243.13 439.657c-20.145-52-40.089-116.653-10.572-169.407M2215.358 417.11c-21.357-50.24-33.591-98.177-5.68-148M2186.33 394.564c-18.818-39.867-34.032-90.283-.224-127.533M2156.621 373.628c-20.01-39.78-25.484-73.213 5.98-108.338M2127.432 354.302c-19.144-37.56-18.688-62.431 13.093-90.722M2094.97 336.587c-17.63-34.816-10.49-54.15 21.275-74.985M2063.645 322.093c-13.81-34.573-.709-45.568 30.676-61.399M2028.739 310.82c-17.166-31.14 20.166-42.932 41.432-50.23M1993.298 301.157c-8.623-32.14 33.291-37.289 53.675-41.72M1955.104 294.715c2.047-33.143 44.085-33.26 67.529-36.11M1916.453 291.494c13.182-33.792 52.94-32.45 83.111-33.617M1879.412 291.494c12.581-38.09 64.628-33.902 95.834-33.559M1845.593 293.105c9.455-43.388 76.28-36.563 106.832-34.988M1811.773 294.715c9.853-48.183 82.986-40.138 116.396-37.714M1779.564 299.546c12.54-52.953 85.625-45.046 124.806-41.572M1748.965 304.378c12.616-57.832 89.474-50.29 132.317-46.402M1718.366 309.21c12.802-62.546 91.586-56.448 139.173-52.059M1687.767 315.651c22.007-65.535 86.253-63.54 145.614-58.4M1657.168 323.703c21.965-69.536 88.977-70.536 151.86-65.3M1628.18 330.145c23.429-73.572 90.238-77.666 158.094-72.638M1597.581 338.198c25.454-77.219 91.547-84.922 164.496-80.293M1566.982 346.25c27.542-80.578 92.926-92.497 171.243-88.147M1536.383 354.302c31.01-83.229 94.942-99.673 178.504-96.09M1504.174 362.355c34.93-85.468 97.799-106.926 186.453-104.02"/><path d="M3572.799 402.616c-45.707-61.526-97.289-113.07-172.443-135.696-59.363-17.868-117.16-15.257-177.816-9.928"/><path d="M3545.103 389.732c-46.969-62.365-103.73-107.905-180.908-125.996-57.05-13.373-109.985-8.432-167.422-4.9"/><path d="M3518.77 375.238c-50.948-62.207-112.365-99.412-191.854-113.663-52.894-9.484-101.52-2.491-154.3-.994"/><path d="M3491.29 360.744c-55.566-59.205-122.117-89.142-202.315-99.594-47.552-6.197-93.096 2.663-140.516 2.024"/><path d="M3461.76 346.25c-59.252-52.26-128.293-77.06-206.764-84.11-43.73-3.926-87.014 6.727-130.694 3.791"/><path d="M3429.28 333.366c-60.109-42.371-131.098-65.438-204.957-67.317-41.487-1.055-82.728 8.968-124.178 3.72"/><path d="M3392.942 320.483c-60.615-32.519-129.26-52.012-198.56-50.137-39.546 1.069-78.978 9.664-118.394 2.024"/><path d="M3351.852 309.21c-59.674-23.146-122.786-38.264-187.074-33.701-37.877 2.688-75.473 9.24-112.947-.864"/><path d="M3306.738 302.767c-58.054-15.085-109.84-23.971-169.193-18.47-36.704 3.404-72.743 7.389-108.26-5.184"/><path d="M3253.52 297.936c-51.177-9.357-93.16-10.808-144.524-5.392-34.957 3.687-71.252 4.64-103.869-10.679M3205.548 297.167c-76.404-9.034-150.306 21.465-222.967-12.545M3170.153 302.227c-75.464 1.01-140.168 25.78-210.119-13.708M3136.56 311.402c-74.762 9.109-132.446 25.787-199.072-19.25M3104.601 322.894c-73.484 15.116-127.517 20.073-189.66-28.732M3074.099 338.871c-73.159 18.474-124.624 10.304-181.704-41.696"/></g><g opacity=".706"><path d="M0 307.082c241.523-80.867 515.524-87.707 765.46-50.006 213.696 32.237 435.119 138.403 654.352 102.483 120.293-19.708 215.573-93.204 303.498-172.972 85.546-77.61 173.589-167.564 293.623-183.93 248.328-33.858 351.537 265.58 557.503 340.377 140.684 51.094 287.48-8.857 411.659-73.184 54.938-28.46 110.624-45.642 173.073-43.606 87.832 2.86 150.74 48.386 219.233 97.972-83.155-52.677-155.33-26.872-235.06 19.385-66.767 38.735-129.986 61.018-207.89 56.708-100.777 2.949-201.366 4.666-301.966-3.44-85.586-6.894-170.345-20.364-255.308-32.357-150.274-21.213-297.71-26.943-448.684-9.175-150.37 17.694-299.09 38.83-450.74 42.584-155.764 3.855-311.873.863-467.679.576-149.609-.277-298.47-4.41-446.522-27.67C386.597 324.793 184.472 262.59 0 307.081z"/><path d="M552.39 368.745c150.055 23.614 300.664 29.471 452.352 30.434 157.6 1.004 315.665 4.392 473.204-.808 153.321-5.062 303.233-29.613 455.151-48.245 150.535-18.459 297.316-10.819 446.829 12.35 86.707 13.437 173.202 28.245 260.698 35.698 100.561 8.568 201.162 6.552 301.918 3.527"/><path d="M541.116 364.967c150.803 23.622 301.862 31.397 454.34 33.114 158.014 1.776 316.664 5.55 474.604-.64 153.764-6.022 303.703-32.582 455.874-52.748 153.23-20.307 301.943-11.837 453.947 13.703 88.892 14.935 177.51 31.328 267.377 39.398 101.086 9.079 202.257 6.639 303.553 3.458"/><path d="M529.843 361.398c153.01 23.71 305.975 33.294 460.691 35.763 159.778 2.551 320.386 6.86 480.067-.716 155.45-7.378 306.532-37.449 460.275-58.547 155.101-21.286 305.042-9.697 458.398 18.375 88.462 16.195 176.728 33.38 266.389 41.608 101.13 9.281 202.358 6.349 303.693 2.967"/><path d="M518.57 359.376c155.315 23.62 310.291 35.098 467.311 38.356 161.529 3.352 324.098 8.233 485.5-.77 154.936-8.641 305.086-41.334 458.191-63.486 156.967-22.71 308.07-9.286 462.872 21.262 87.875 17.341 175.576 35.45 264.834 44.188 103.52 10.131 207.145 6.594 310.896 2.877"/><path d="M505.686 355.937c157.708 23.449 314.84 36.791 474.232 40.869 161.043 4.12 323.317 9.532 484.22-.372 158.956-9.787 312.258-46.604 469.244-69.809 156.621-23.152 306.913-7.274 460.84 25.265 87.292 18.454 174.444 37.532 263.322 46.718 105.893 10.945 211.96 6.637 318.096 2.522"/><path d="M494.413 352.393c160.218 23.128 319.611 38.358 481.466 43.3 162.757 4.969 327.014 11.084 489.597-.299 158.47-11.093 310.773-50.572 467.16-74.828 158.524-24.589 309.923-6.58 465.229 28.484 89.002 20.094 177.916 40.522 268.84 49.871 105.947 10.89 212.13 5.67 318.277 1.203"/><path d="M481.529 350.477c160.649 22.36 320.312 39.495 482.498 45.396 164.398 5.98 330.627 12.897 494.853.57 160.34-12.037 313.665-54.783 471.715-80.357 160.56-25.984 312.797-5.788 469.565 31.837 90.715 21.773 181.383 43.565 274.399 52.95 106.002 10.697 212.277 4.48 318.417-.373"/><path d="M468.645 346.996c163.401 21.763 325.64 40.757 490.47 47.582 166.059 6.875 334.286 14.636 500.14.81 159.889-13.328 312.165-58.756 469.64-85.41 164.838-27.903 319.82-3.879 480.046 36.918 88.083 22.427 176.248 44.204 266.854 53.619 108.336 11.258 216.993 3.91 325.442-1.47"/><path d="M455.762 343.881C622 365.002 786.986 385.732 954.535 393.528c167.706 7.806 337.927 16.451 505.398 1.088 161.586-14.826 314.814-64.32 473.994-91.555 162.177-27.747 314.672-2.094 471.676 40.084 89.577 24.065 179.26 47.555 271.734 57.378 110.642 11.751 221.674 3.095 332.383-2.846"/><path d="M444.488 340.756c168.494 22.515 336.636 42.802 506.485 51.579 167.139 8.636 337.104 18.05 504.022 2.038 165.704-15.895 321.733-70.419 484.926-98.4 164.357-28.184 317.493 2.032 475.594 46.791 89.235 25.264 178.778 49.076 271.32 58.407 110.628 11.153 221.666 1.232 332.257-5.161"/><path d="M431.605 337.437c169.954 21.364 339.284 43.315 510.4 53.149 169.53 9.743 342.408 20.308 511.708 2.837 163.999-16.924 317.698-73.18 478.946-102.754 167.305-30.684 322.014 1.379 482.372 49.118 91.313 27.184 183.085 52.488 278.254 61.584 111.104 10.62 222.589-.64 333.548-7.521"/><path d="M420.331 334.54C593.028 355.2 765 378.432 938.693 389.322c171.117 10.727 346.015 22.355 516.874 3.314 165.746-18.47 320.219-79.127 483.288-109.053 167.074-30.661 320.848 4.832 480.031 54.463 93.028 29.005 186.683 55.471 284.146 63.97 111.04 9.682 222.345-2.88 333.118-10.203"/><path d="M407.448 331.521c173.332 19.695 345.902 43.81 520.028 55.817 172.563 11.9 349.454 24.805 521.814 5.035 167.762-19.239 322.97-83.645 487.788-114.955 171.678-32.612 327.579 7.949 490.134 60.777 90.51 29.412 181.872 55.435 277.08 63.57 113.252 9.677 226.622-4.511 339.512-12.42"/><path d="M396.174 328.876c178.284 19.121 355.683 44.478 534.593 57.57 169.857 12.43 344.25 25.96 513.955 6.023 171.982-20.205 329.71-90.407 498.67-122.206 169.196-31.842 322.464 10.444 481.7 64.55 91.95 31.24 184.901 58.954 282.144 67.019 115.427 9.573 230.819-6.411 345.77-14.889"/><path d="M383.29 326.045c179.026 17.994 357.081 43.95 536.496 58.214 173.447 13.79 352.095 28.862 525.405 7.24 171.645-21.416 327.998-94.843 496.555-127.468 173.922-33.662 329.051 14.037 491.65 71.321 91.761 32.33 184.769 59.77 282.302 66.735 115.258 8.227 230.174-9.204 344.828-18.042"/><path d="M370.407 323.534c181.93 16.997 362.752 43.743 544.852 59.15 174.863 14.798 355.74 31.403 530.449 8.035 171.239-22.907 326.357-98.877 494.453-132.716 173.63-34.956 328.208 14.716 489.604 74.005 95.394 35.042 192.407 64.723 294.523 70.39 115.127 6.388 229.27-12.093 343.677-21.242"/><path d="M359.134 321.176c185.7 15.97 370.128 43.537 555.768 60.138 172.967 15.465 352.04 32.85 524.976 9.742 176.49-23.587 334.58-106.689 507.875-140.57 174.651-34.143 328.24 20.506 489.264 81.715 95.566 36.324 193.185 65.99 296.038 70.295 115.405 4.829 229.276-14.951 343.872-24.379"/><path d="M346.25 318.726c186.563 14.596 371.705 42.32 557.942 60.124 176.435 16.866 359.873 36.19 536.314 11.267 176.172-24.887 332.774-111.246 505.734-145.889 179.627-35.976 334.58 24.994 499.016 89.18 95.59 37.31 193.39 66.095 296.673 68.847 115.05 3.068 228.07-17.992 342.261-27.568"/><path d="M334.977 316.546c189.561 13.3 377.52 41.474 566.508 60.484 177.83 17.888 363.434 38.875 541.289 12.272 175.835-26.302 331.008-115.506 503.602-151.194 179.48-37.11 333.654 25.922 496.894 92.133 94.757 38.436 191.92 68.418 294.907 71.42 119.445 3.48 236.332-20.397 354.795-30.428"/><path d="M322.093 314.486c192.583 11.901 383.371 40.408 575.123 60.655 179.312 18.935 366.877 41.408 546.237 13.317 175.562-27.498 329.239-119.703 501.48-156.486 184.308-39.361 340.123 31.008 506.496 99.984 94.962 39.37 192.278 68.03 295.813 69.348 118.944 1.514 234.844-23.71 352.814-33.69"/><path d="M310.82 312.454c193.513 10.282 385.086 38.512 577.51 59.928 178.445 19.86 365.509 43.932 544.312 17.165 180.556-27.03 336.038-125.359 512.479-163.823 186.867-40.739 342.705 34.077 510.178 105.566 98.198 41.92 198.29 69.978 305.801 69.27 117.26-.772 231.186-27.094 347.566-36.807"/><path d="M297.936 310.855c197.367 8.719 392.626 37.232 588.65 59.946 180.692 20.936 370.937 46.932 551.923 17.322 180.636-29.555 335.336-132.723 512.717-169.996 185.489-38.978 338.908 39.247 503.72 111.797 101.757 44.792 204.82 72.52 316.714 69.954 116.066-2.66 228.617-30.45 343.923-39.81"/><path d="M286.663 307.632c200.403 7.003 398.558 35.511 597.371 59.485 180.024 21.707 369.723 48.95 550.228 19.647 183.136-29.73 337.807-137.558 517.153-176.407 190.47-41.258 345.17 45.425 513.153 120.258 103.561 46.134 207.195 70.891 321.037 66.51 114.179-4.392 224.827-33.788 338.436-42.615"/><path d="M273.779 306.06c201.31 5.12 400.342 32.944 599.835 58.024 181.308 22.795 372.77 52.248 554.809 22.898 185.669-29.936 340.169-142.903 521.568-182.894 190.718-42.046 343.973 46.61 510.917 123.613 102.826 47.426 205.877 73.108 319.632 68.69 118.334-4.597 232.522-37.431 350.286-46.01"/><path d="M262.506 304.885c205.142 3.211 407.927 31.014 611.023 57.423 183.477 23.86 378.247 55.524 562.4 23.163 90.012-15.817 175.032-48.155 257.932-85.836 85.869-39.028 170.854-83.666 263.878-103.231 191.91-40.368 343.578 54.922 510.107 132.868 104.591 48.957 208.798 72.192 324.586 65.9 117.07-6.364 229.966-40.955 346.742-48.736"/><path d="M248 304.968c208.122 1.17 413.894 28.646 619.763 56.302 182.864 24.566 376.865 57.586 560.648 25.772 92.3-15.979 179.03-50.088 263.446-89.77 85.34-40.118 169.834-85.836 262.793-105.827 91.746-19.731 184.483-10.92 272.202 21.47 49.402 18.243 96.983 41.193 143.467 65.748 34.653 18.304 68.313 37.988 103.723 54.654 106.008 49.89 211.674 69.848 328.714 61.356 115.192-8.357 225.365-46.748 342.737-52.04"/><path d="M238.349 301.12c208.929-.98 415.685 25.442 622.205 54.086 184.206 25.55 379.752 60.876 565.189 29.385 94.58-16.063 183.07-52.08 268.938-93.786 84.857-41.217 168.794-87.856 261.707-108.413 197.048-43.595 348.688 63.512 517.073 145.488 110.78 53.93 221.35 73.121 344.133 61.891 113.418-10.374 222.622-47.51 336.584-53.18"/><path d="M227.076 300.266C441.04 297 652.892 323.514 864.25 353.656c183.514 26.173 378.977 62.93 563.781 30.157 94.485-16.755 182.48-53.852 267.82-96.652 86.275-43.27 171.733-92.307 267.157-112.362 199.994-42.031 349.901 73.598 519.717 156.157 111.963 54.43 224.114 70.162 347.722 56.433 111.784-12.417 219.187-50.511 332.032-54.914"/><path d="M215.802 299.59c215.508-5.618 429.234 19.88 642.027 51.043 185.7 27.196 383.831 66.66 570.987 32.636 97.1-17.652 186.688-57.386 273.732-102.638 84.084-43.716 167.875-92.513 261.588-112.341 203.71-43.104 353.355 80.778 525.25 164.663 110.674 54.009 221.97 67.642 343.97 52.922 113.638-13.71 222.345-54.37 337.45-57.452"/><path d="M202.919 297.434c216.135-8.025 430.963 16.1 644.332 48.07 187.112 28.032 386.615 70.037 575.529 36.582 99.462-17.612 190.79-59.43 279.204-106.82 83.53-44.771 166.833-94.634 260.522-114.854 203.97-44.018 352.262 82.725 522.844 168.532 112.618 56.652 226.356 69.959 351.081 53.535 114.966-15.14 224.203-58.147 341.14-59.672"/><path d="M191.645 297.38c221.027-10.708 441.07 13.262 659.207 46.762 186.421 28.629 385.776 72.2 574.087 37.478 99.392-18.328 190.193-61.28 278.036-109.79 82.984-45.827 165.762-96.744 259.455-117.356 96.056-21.134 191.738-4.53 280.231 36.571 87.892 40.822 165.032 98.526 251.688 141.67 113.304 56.413 229.77 66.224 354.22 47.028 113.683-17.535 221.064-60.755 337.452-60.506"/><path d="M180.372 295.41c221.502-13.295 442.733 9.12 661.383 43.292 189.854 29.671 393.348 76.951 585.278 40.35 99.341-18.946 189.622-63.142 276.868-112.75 86.26-49.05 172.613-103.692 271.57-122.597 204.143-39.002 347.927 98.327 516.293 184.988 117.094 60.27 239.72 68.64 368.504 45.91 112.668-19.887 218.161-63.047 334.306-60.873"/><path d="M170.71 295.355c224.068-16.098 448.554 5.33 669.787 40.564 191.112 30.44 396.849 80.6 590.166 42.296 99.36-19.686 188.98-64.96 275.7-115.705 85.667-50.128 171.507-105.879 270.494-125.127 209.584-40.756 352.975 107.724 525.301 194.96 117.685 59.572 242.77 64.212 370.966 38.546 111.924-22.406 215.553-64.99 331.75-60.74"/><path d="M159.436 295.5c227.43-19.087 456.011 1.574 680.632 38.02 189.415 30.734 392.443 81.796 584.436 45.468 100.084-18.939 190.296-64.884 276.934-116.812 85.471-51.23 170.657-108.751 269.62-129.95 216.07-46.281 360.393 114.007 537.275 202.592 118.604 59.4 246.008 60.647 374.058 32.417 112.059-24.703 214.216-66.932 331.337-60.42"/><path d="M148.163 294.105c227.626-21.91 457.464-3.039 682.478 33.8 192.962 31.592 400.009 86.792 595.736 48.587 100.031-19.527 189.784-66.73 275.781-119.725 86.727-53.44 173.423-113.66 275.168-133.838 213.745-42.39 354.56 118.617 528.077 208.159 117.967 60.874 245.622 62.277 373.606 33.412 116.884-26.363 221.102-71.754 343.778-62.47"/><path d="M136.89 294.674c229.918-25.03 463.116-7.35 690.585 30.391 194.19 32.222 403.568 90.605 600.68 50.709 100.07-20.253 189.183-68.524 274.627-122.627 87.953-55.692 176.17-118.566 280.704-137.76 216.079-39.68 354.956 131.397 530.374 219.71 117.933 59.371 249.38 56.743 375.435 25.144 117.462-29.444 219.899-72.29 344.047-60.858"/><path d="M127.227 293.592c231.254-28.15 467.007-11.961 696.07 26.336 195.196 32.63 404.475 93.502 602.903 54.358 104.357-20.587 196.202-72.726 284.31-130.239 83.226-54.327 167.049-114.549 266.19-135.156 221.251-45.994 360.052 132.892 538.131 223.885 121.61 62.14 258.075 56.479 387.307 20.686 116.62-32.3 220-74.801 344.198-57.878"/><path d="M115.953 294.49c233.312-31.467 472.524-16.585 703.914 22.479 196.331 33.144 408.143 97.4 607.89 56.598 104.423-21.33 195.598-74.586 283.127-133.236 86.369-57.872 173.651-121.963 278.45-140.205 220.204-38.328 355.796 148.74 533.686 236.735 121.626 60.162 261.213 50.14 388.351 11.726 115.949-35.036 221.705-78.03 345.75-54.268"/><path d="M106.29 293.733C340.766 258.96 582.435 272.25 815.392 311.7c197.356 33.423 409.126 100.253 610.183 60.378 104.355-20.695 195.198-74.244 281.91-133.666 85.247-58.416 171.159-124.29 274.82-144.879 225.42-44.769 360.892 150.729 541.417 241.14 120.896 60.549 260.824 49.781 386.938 10.478 119.925-37.376 229.69-84.426 358.253-53.197"/><path d="M96.628 294.94c236.311-38.288 481.456-26.401 716.631 13.674 198.826 33.88 412.545 104.298 615.231 62.726 104.368-21.407 194.681-76.1 280.762-136.606 88.354-62.103 177.544-131.983 287.087-149.859 224.122-36.572 355.912 166.89 536.901 253.89 121.344 58.328 263.216 42.927 387.562 1.113 119.39-40.148 231.327-85.601 359.3-47.771"/><path d="M86.965 294.518c237.194-41.756 484.9-31.535 721.47 8.724 199.893 34.016 413.539 107.1 617.61 66.621 108.846-21.59 201.665-80.466 290.258-144.523 83.677-60.503 168.664-127.558 272.718-147.141 229.565-43.206 360.882 169.324 544.622 258.511 124.751 60.556 271.54 41.128 398.086-4.628 118.448-42.829 232.54-85.042 358.964-40.901"/><path d="M77.302 295.938c238.119-44.942 488.02-36.81 726.075 3.57 199.073 33.77 409.722 108.051 613.371 71.742 109.238-19.477 202.639-77.283 290.63-142.106 87.912-64.762 176.742-139.036 287.563-158.3 228.275-39.678 356.901 176.316 538.979 265.552 125.969 61.736 275.462 39.845 402.376-8.5 119.313-45.449 237.977-87.308 364.405-35.263"/><path d="M67.64 295.884c237.432-48.283 488.338-42.231 726.458-2.472 202.783 33.857 417.65 113.341 625.13 75.402 109.343-19.996 202.198-79.127 289.517-145.04 87.2-65.825 175.468-141.394 286.437-160.926 231.06-40.667 358.04 184.09 542.063 273.157 126.089 61.027 276.41 36.399 402.138-13.548 121.798-48.385 243.015-88.645 370.757-29.325"/><path d="M57.977 297.628c240.15-52.43 495.81-47.559 737.245-6.93 201.815 33.962 414.33 114.641 621.095 78.264 111.673-19.648 205.634-80.887 293.78-149.023 87.997-68.024 177.117-146.04 290.716-164.37 232.132-37.456 356.126 196.027 542.07 283.002 128.239 59.983 280.552 29.86 406.038-22.841 121.638-51.084 244.465-84.535 370.11-19.796"/><path d="M48.314 297.873c239.156-55.878 495.814-53.088 737.116-13.37 205.668 33.853 422.34 119.984 633.037 82.013 111.745-20.138 205.228-82.757 292.668-151.97 87.249-69.063 175.85-148.424 289.597-166.984 235.028-38.352 356.842 204.171 545.138 290.64 128.577 59.048 281.063 26.077 405.442-28.183 124.872-54.474 249.084-83.846 376.089-12.306"/><path d="M40.262 299.896c241.576-60.243 503.01-58.684 747.492-18.22 204.687 33.882 419.103 121.175 629.056 84.946 114.198-19.705 208.676-84.414 296.93-155.96 87.95-71.302 177.546-153.152 293.91-170.33 236.013-34.839 354.422 216.471 545.122 300.37 128.832 56.68 280.815 20.305 403.49-35.396 127.754-58.006 253.172-80.975 380.626-3.585"/><path d="M30.599 300.423c240.317-63.805 502.54-64.313 746.785-25.029 208.642 33.556 427.284 126.535 641.212 88.768 114.323-20.184 208.296-86.305 295.821-158.921 87.23-72.366 176.164-155.542 292.794-172.932 238.81-35.609 354.867 225.07 548.188 308.006 131.721 56.51 284.414 14.826 407.874-43.374 129.623-61.105 255.104-73.624 381.04 7.703"/><path d="M27.913 301.13c238.81-66.296 501.166-68.228 744.54-29.844 209.982 33.118 428.73 129.073 644.096 92.86 116.804-19.64 211.794-87.96 300.099-162.89 86.168-73.118 174.083-157.235 290.36-175.184 243.477-37.58 356.584 235.875 554.934 316.555 132.41 53.858 283.408 8.614 405.517-50.727 51.787-25.167 103.5-47.003 161.713-50.736 84.544-5.42 154.746 21.691 223.76 68.467"/><path d="M14.494 303.47c240.839-72.039 508.493-75.83 755.353-37.396 210.13 32.716 427.35 130.396 642.974 96.797 119.802-18.67 216.382-89.478 305.722-167.013 87.02-75.523 176.383-162.907 295.855-178.78 242.776-32.257 351.892 246.666 551.398 325.155 135.76 53.41 286.126 2.49 409.403-58.927 52.13-25.969 104.313-46.125 163.262-48.024 86.358-2.78 153.695 29.832 222.722 78.294"/><path d="M11.546 304.442c239.986-74.879 508.77-79.87 755.473-42.026 211.999 32.52 431.065 134.264 648.599 99.638 120.031-19.107 216.013-91.37 304.611-169.995 86.336-76.617 174.947-165.148 294.741-181.36 245.569-33.236 351.798 256.133 554.42 332.84 136.79 51.784 285.647-2.115 408.19-64.832 54.197-27.735 108.67-47.362 170.326-47.323 87.52.055 152.326 38.725 221.212 88.165M2490.882 298.09c-73.296-18.976-123.42 3.825-175.034 57.677M2462.768 277.607c-73.835-16.306-123.143 21.432-169.466 76.21M2435.58 254.16c-74.585-10.274-122.991 41.239-164.825 96.822M2409.136 229.507c-72.04-9.654-126.68 67.962-160.927 119.043M2383.256 204.529c-72.938 1.884-124.951 88.408-157.594 142.404M2357.764 178.762c-73.988 17.932-121.508 105.624-154.648 166.441M2332.483 152.994c-73.5 33.242-118.232 122.611-151.914 190.697M2305.632 128.837c-71.843 48.124-115.07 138.486-149.22 214.725M2280.26 104.68c-69.343 61.752-112.165 153.672-146.394 238.087M2254.596 82.134c-66.22 73.405-109.636 168.456-143.277 260.356M2228.48 62.808c-62.202 84.931-106.84 181.413-139.707 281.121M2201.757 43.483c-59.409 92.828-104.526 194.288-135.53 299.987M2172.673 28.988c-56.772 99.42-102.032 205.592-130.604 316.573M2144.379 16.105c-54.242 104.921-98.81 215.089-124.856 330.514M2113.35 6.442c-51.522 108.658-96.53 222.698-117.984 341.454M2082.52 1.61c-48.648 111.042-94.05 228.108-109.7 349.038M2050.188 0c-45.96 112.939-88.584 230.69-99.915 352.924M2016.268 3.22c-43.705 112.566-81.546 231.44-88.542 352.797M1980.377 9.663c-37.987 111.504-72.648 229.73-75.197 348.416M1946.496 20.936c-33.246 109.115-65.319 224.99-63.811 340.077M1913.328 35.43c-29.562 105.118-59.58 218.007-54.228 328.313M1883.814 53.145c-26.895 100.092-55.21 208.945-46.166 313.643M1854.291 74.081c-24.935 94.219-51.866 198.181-39.348 296.566M1825.993 95.017c-23.561 87.761-49.311 186.119-33.516 277.567M1797.317 119.174c-22.337 79.907-48.217 173.847-28.41 257.114M1770.453 143.331c-21.474 72.2-46.493 160.477-23.79 235.652M1743.957 167.488c-20.87 64.849-44.92 146.398-19.424 213.612M1715.967 191.645c-20.31 57.67-43.236 132.137-15.088 191.4M1689.13 217.413c-20.145 52-40.089 116.652-10.572 169.406"/><path d="M3343.412 300.018c-85.78-44.37-157.222.736-230.718 46.78-64.643 40.499-129.417 59.845-205.805 55.116"/><path d="M3309.462 275.231c-90.283-28.953-154.278 27.647-225.359 74.133-63.116 41.276-129.65 57.714-204.592 52.498"/><path d="M3272.081 253.676c-93.004-8.673-145.918 52.19-217.446 99.45-62.225 41.117-130.508 54.695-204.112 48.947"/><path d="M3233.174 238.349c-88.501 11.32-134.467 75.192-205.307 120.794-59.801 38.497-132.655 53.492-203.112 44.417"/><path d="M3186.435 228.686c-75.555 27.87-120.176 94.687-187.427 135.724-59.52 36.32-132.833 48.888-201.63 39.305"/><path d="M3144.191 225.465c-63.154 41.428-107.115 105.685-173.204 143.187-60.197 34.16-131.464 42.485-199.377 33.864"/><path d="M3107.402 228.686c-55.806 49.541-98.994 111.98-166.909 146.572-60.473 30.798-129.805 36.225-196.26 27.89"/><path d="M3075.305 233.517c-49.957 55.246-94.66 115.683-164.88 146.432-60.635 26.552-127.173 29.349-191.96 21.567"/><path d="M3045.508 243.18c-46.678 59.194-94.148 115.728-166.926 142.626-60.384 22.316-122.904 22.323-185.885 15.57"/><path d="M3018.799 254.453c-45.707 61.527-97.289 113.071-172.442 135.697-59.364 17.868-117.16 15.257-177.817 9.928"/><path d="M2991.103 267.337c-46.969 62.365-103.73 107.906-180.908 125.996-57.049 13.374-109.985 8.433-167.422 4.901"/><path d="M2964.77 281.831c-50.948 62.208-112.365 99.413-191.854 113.664-52.894 9.484-101.52 2.491-154.3.993"/><path d="M2937.29 296.326c-55.566 59.205-122.117 89.142-202.315 99.594-47.552 6.197-93.096-2.664-140.516-2.024"/><path d="M2907.76 310.82c-59.252 52.26-128.293 77.06-206.764 84.11-43.73 3.926-87.013-6.727-130.694-3.792"/><path d="M2875.28 323.703c-60.109 42.372-131.098 65.438-204.957 67.318-41.487 1.055-82.728-8.969-124.178-3.72"/><path d="M2838.942 336.587c-60.615 32.519-129.26 52.012-198.56 50.137-39.546-1.07-78.978-9.664-118.394-2.024"/><path d="M2797.853 347.86c-59.675 23.146-122.787 38.263-187.075 33.701-37.877-2.688-75.473-9.24-112.947.863"/><path d="M2752.739 354.302c-58.054 15.085-109.84 23.972-169.194 18.47-36.704-3.404-72.743-7.388-108.26 5.185"/><path d="M2699.52 359.134c-51.177 9.356-93.16 10.807-144.524 5.391-34.957-3.686-71.252-4.64-103.869 10.68M2651.548 359.902c-76.403 9.035-150.306-21.464-222.967 12.546M2616.153 354.843c-75.464-1.01-140.168-25.78-210.119 13.708M2582.56 345.668c-74.762-9.109-132.445-25.787-199.072 19.25M2550.601 334.176c-73.484-15.116-127.517-20.073-189.66 28.732M2520.099 318.199c-73.159-18.474-124.624-10.304-181.704 41.696"/></g></g><path d="M0 0h1440v228H0z" transform="translate(0 28)" fill="url(#b)"/><path fill="url(#c)" d="M2981 1134h170v209h-170z" transform="translate(-1711 -588)"/><path fill="url(#c)" transform="rotate(-180 940.5 542.5)" d="M1711 666h170v341h-170z"/></g></svg>